<svg width="120" height="120" viewBox="0 0 120 120" fill="none" xmlns="http://www.w3.org/2000/svg">
  <rect width="120" height="120" rx="60" fill="#FCE7F3"/>
  <path d="M31 50C31 28 44 17 60 17C76 17 89 28 89 50V77C89 93 77 104 60 104C43 104 31 93 31 77V50Z" fill="#831843"/>
  <circle cx="60" cy="49" r="24" fill="#DB2777"/>
  <path d="M23 104C29 81 43 68 60 68C77 68 91 81 97 104H23Z" fill="#F9A8D4"/>
  <path d="M36 42C44 28 55 23 69 26C78 29 84 37 86 47C72 39 50 38 36 42Z" fill="#500724"/>
  <circle cx="51" cy="51" r="3" fill="#FDF2F8"/>
  <circle cx="69" cy="51" r="3" fill="#FDF2F8"/>
  <path d="M51 59C56 63 64 63 69 59" stroke="#FDF2F8" stroke-width="4" stroke-linecap="round"/>
</svg>
