<svg width="120" height="120" viewBox="0 0 120 120" fill="none" xmlns="http://www.w3.org/2000/svg">
  <rect width="120" height="120" rx="60" fill="#F8FAFC"/>
  <path d="M30 51C30 28 44 17 60 17C76 17 90 28 90 51V77C90 93 78 104 60 104C42 104 30 93 30 77V51Z" fill="#334155"/>
  <circle cx="60" cy="49" r="24" fill="#64748B"/>
  <path d="M22 104C28 81 43 68 60 68C77 68 92 81 98 104H22Z" fill="#CBD5E1"/>
  <path d="M36 41C43 28 55 22 69 26C78 29 84 37 85 47C71 38 50 38 36 41Z" fill="#0F172A"/>
  <circle cx="51" cy="51" r="3" fill="#F8FAFC"/>
  <circle cx="69" cy="51" r="3" fill="#F8FAFC"/>
  <path d="M51 59C56 63 64 63 69 59" stroke="#F8FAFC" stroke-width="4" stroke-linecap="round"/>
</svg>
